<svg xmlns="http://www.w3.org/2000/svg" viewBox="0 0 222.15 53.28"><defs><style>.cls-1{fill:#fff;}</style></defs><g id="Layer_2" data-name="Layer 2"><g id="Layer_1-2" data-name="Layer 1"><path class="cls-1" d="M201.48,27.53a2.47,2.47,0,0,1,1.22.29,2.25,2.25,0,0,1,.87.75l2.8-2.94A5.37,5.37,0,0,0,204,24.2a8.89,8.89,0,0,0-2.56-.4,8.6,8.6,0,0,0-3,.5,7.15,7.15,0,0,0-2.44,1.46A6.79,6.79,0,0,0,194.44,28a7.63,7.63,0,0,0,0,5.93,6.89,6.89,0,0,0,1.62,2.27,7.31,7.31,0,0,0,2.44,1.46,8.6,8.6,0,0,0,3,.5,8.26,8.26,0,0,0,2.56-.41,5.35,5.35,0,0,0,2.33-1.42l-2.8-2.94a3.63,3.63,0,0,1-.87.74,2.26,2.26,0,0,1-1.22.3,3.22,3.22,0,0,1-2.5-1,3.53,3.53,0,0,1-.89-2.51,3.52,3.52,0,0,1,.89-2.5A3.22,3.22,0,0,1,201.48,27.53Z"/><path class="cls-1" d="M158.18,25.76a7.15,7.15,0,0,0-2.44-1.46,8.6,8.6,0,0,0-3-.5,8.69,8.69,0,0,0-3,.5,7.17,7.17,0,0,0-2.43,1.46A6.68,6.68,0,0,0,145.71,28a7.63,7.63,0,0,0,0,5.93,6.78,6.78,0,0,0,1.63,2.27,7.17,7.17,0,0,0,2.43,1.46h0a8.69,8.69,0,0,0,3,.5,8.6,8.6,0,0,0,3-.5,7.31,7.31,0,0,0,2.44-1.46A6.92,6.92,0,0,0,159.81,34a7.63,7.63,0,0,0,0-5.93A6.82,6.82,0,0,0,158.18,25.76Zm-2.91,7.75a3.76,3.76,0,0,1-5,0,3.56,3.56,0,0,1-.89-2.51,3.53,3.53,0,0,1,.89-2.51h0a3.76,3.76,0,0,1,5,0,3.53,3.53,0,0,1,.89,2.51A3.56,3.56,0,0,1,155.27,33.51Z"/><path class="cls-1" d="M141.46,25.76A7.31,7.31,0,0,0,139,24.3a9.16,9.16,0,0,0-6,0,7.17,7.17,0,0,0-2.43,1.46A6.68,6.68,0,0,0,129,28,7.75,7.75,0,0,0,129,34a6.78,6.78,0,0,0,1.63,2.27,7.17,7.17,0,0,0,2.43,1.46h0a9.16,9.16,0,0,0,6,0,7.31,7.31,0,0,0,2.44-1.46A7.07,7.07,0,0,0,143.09,34a7.75,7.75,0,0,0,0-5.93A7,7,0,0,0,141.46,25.76Zm-2.91,7.75a3.76,3.76,0,0,1-5,0,3.56,3.56,0,0,1-.89-2.51,3.48,3.48,0,0,1,.89-2.51h0a3.76,3.76,0,0,1,5,0,3.53,3.53,0,0,1,.89,2.51A3.56,3.56,0,0,1,138.55,33.51Z"/><path class="cls-1" d="M74.14,25.61h0a4,4,0,0,0-1.88-1.41,7.49,7.49,0,0,0-2.48-.4,5.58,5.58,0,0,0-2.63.6,6.19,6.19,0,0,0-2,1.63,7.32,7.32,0,0,0-1.24,2.32,8.9,8.9,0,0,0-.44,2.76A8.17,8.17,0,0,0,63.93,34,6.63,6.63,0,0,0,65.3,36.2a6.07,6.07,0,0,0,2.14,1.47h0a7.11,7.11,0,0,0,2.77.53,5,5,0,0,0,1.38-.2,6.46,6.46,0,0,0,1.21-.51,5.56,5.56,0,0,0,1-.7,4.66,4.66,0,0,0,.66-.74h0v1.81h3.9V16.51H74.14Zm-.56,7.89a3.74,3.74,0,0,1-5,0A3.53,3.53,0,0,1,67.69,31a3.56,3.56,0,0,1,.89-2.51h0a3.76,3.76,0,0,1,5,0A3.56,3.56,0,0,1,74.47,31,3.53,3.53,0,0,1,73.58,33.5Z"/><path class="cls-1" d="M221.55,28a6.82,6.82,0,0,0-1.63-2.27,7.31,7.31,0,0,0-2.44-1.46,8.6,8.6,0,0,0-3-.5,8.69,8.69,0,0,0-3,.5,7.17,7.17,0,0,0-2.43,1.46A6.68,6.68,0,0,0,207.45,28a7.75,7.75,0,0,0,0,5.93,6.78,6.78,0,0,0,1.63,2.27,7.17,7.17,0,0,0,2.43,1.46,8.69,8.69,0,0,0,3,.5,8.6,8.6,0,0,0,3-.5,7.31,7.31,0,0,0,2.44-1.46A6.92,6.92,0,0,0,221.55,34a7.63,7.63,0,0,0,0-5.93ZM217,33.51a3.76,3.76,0,0,1-5,0A3.56,3.56,0,0,1,211.1,31a3.53,3.53,0,0,1,.89-2.51h0a3.76,3.76,0,0,1,5,0A3.54,3.54,0,0,1,217.9,31,3.56,3.56,0,0,1,217,33.51Z"/><path class="cls-1" d="M93.17,25.76a5.56,5.56,0,0,0-2-1.45,6.66,6.66,0,0,0-2.68-.51,8.46,8.46,0,0,0-3,.51A7,7,0,0,0,83,25.76,6.78,6.78,0,0,0,81.41,28a7.75,7.75,0,0,0,0,5.93A6.78,6.78,0,0,0,83,36.23a7,7,0,0,0,2.43,1.46h0a8.58,8.58,0,0,0,3,.5,7.71,7.71,0,0,0,3.23-.71,6.7,6.7,0,0,0,2.57-2l-3-2.17A4.8,4.8,0,0,1,90,34.51a3.05,3.05,0,0,1-1.77.46,3.12,3.12,0,0,1-2.09-.71,3.32,3.32,0,0,1-1.1-1.94h9.85V31a9.08,9.08,0,0,0-.46-3A6.63,6.63,0,0,0,93.17,25.76Zm-8.11,3.68a2.66,2.66,0,0,1,.24-1,2.42,2.42,0,0,1,.6-.82,3,3,0,0,1,.91-.58h0a3.24,3.24,0,0,1,1.23-.23,2.51,2.51,0,0,1,1.9.77,2.45,2.45,0,0,1,.71,1.83Z"/><path class="cls-1" d="M108.19,25.64a4.47,4.47,0,0,0-1.92-1.37,8.68,8.68,0,0,0-3.07-.47,9.87,9.87,0,0,0-3.28.56A7.65,7.65,0,0,0,97.15,26l2.26,2.31a5.29,5.29,0,0,1,1.54-1.2,4.35,4.35,0,0,1,1.91-.44,2.91,2.91,0,0,1,1.91.67,2.23,2.23,0,0,1,.81,1.79l-1.91,0a20.62,20.62,0,0,0-2.07.17,13.6,13.6,0,0,0-2,.44,6,6,0,0,0-1.71.84A3.87,3.87,0,0,0,96.71,32a4.21,4.21,0,0,0-.44,2,4.15,4.15,0,0,0,.4,1.84,3.83,3.83,0,0,0,1.08,1.32,4.41,4.41,0,0,0,1.57.8h0a6.09,6.09,0,0,0,1.84.28,6.37,6.37,0,0,0,2.48-.48,4,4,0,0,0,1.88-1.58h.06v1.72h3.9v-7a14.61,14.61,0,0,0-.29-3A5.21,5.21,0,0,0,108.19,25.64Zm-2.61,7.1a2.23,2.23,0,0,1-1,1.92,3.45,3.45,0,0,1-1,.48,4.1,4.1,0,0,1-1.2.17A2.69,2.69,0,0,1,101,35a1.21,1.21,0,0,1-.65-1.13,1.35,1.35,0,0,1,.47-1.1,3,3,0,0,1,1.13-.6,6.43,6.43,0,0,1,1.38-.24h0c.49,0,.89,0,1.2,0h1Z"/><path class="cls-1" d="M191,33.58a2.6,2.6,0,0,0-.84-.55,2.73,2.73,0,0,0-1-.2,2.76,2.76,0,0,0-1,.2,2.5,2.5,0,0,0-1.38,1.38,2.54,2.54,0,0,0-.2,1,2.58,2.58,0,0,0,.2,1,2.41,2.41,0,0,0,.55.83,2.56,2.56,0,0,0,.83.55h0a2.67,2.67,0,0,0,1,.2,2.73,2.73,0,0,0,1-.2,2.6,2.6,0,0,0,.84-.55,2.73,2.73,0,0,0,.55-.83,2.76,2.76,0,0,0,.2-1,2.62,2.62,0,0,0-.75-1.85Z"/><rect class="cls-1" x="111.67" y="16.51" width="4.24" height="21.35"/><path class="cls-1" d="M182.91,25.54a3.7,3.7,0,0,0-1.5-1.27,5.34,5.34,0,0,0-2.33-.47,5.42,5.42,0,0,0-2.57.56,4.53,4.53,0,0,0-1.78,1.9,3.78,3.78,0,0,0-1.68-1.87,5.46,5.46,0,0,0-2.56-.59,4.87,4.87,0,0,0-1.42.2,5.18,5.18,0,0,0-1.16.51,3.71,3.71,0,0,0-.87.71,3.18,3.18,0,0,0-.57.79h-.06V24.14h-4.07V37.86h4.24V31a9.36,9.36,0,0,1,.09-1.3,3.4,3.4,0,0,1,.35-1.12,2,2,0,0,1,.78-.79,2.67,2.67,0,0,1,1.33-.29,1.67,1.67,0,0,1,1.12.33,2.05,2.05,0,0,1,.55.82,3.92,3.92,0,0,1,.2,1c0,.36,0,.66,0,.9v7.26h4.25V30.6a5.28,5.28,0,0,1,.12-1.19,2.77,2.77,0,0,1,.43-1,2,2,0,0,1,.79-.67,2.75,2.75,0,0,1,1.23-.23,1.56,1.56,0,0,1,1.46.68,3.32,3.32,0,0,1,.41,1.66v8h4.23v-8.1a10.65,10.65,0,0,0-.23-2.33A5.37,5.37,0,0,0,182.91,25.54Z"/><path class="cls-1" d="M126.69,23.79a4.07,4.07,0,0,0-2.35.64,5.21,5.21,0,0,0-1.62,1.9h0v-2.2h-4.24V37.86h4.24V32.12a12.9,12.9,0,0,1,.11-1.86,3.58,3.58,0,0,1,.5-1.45,2.48,2.48,0,0,1,1.08-.95,4.55,4.55,0,0,1,1.93-.34,5.62,5.62,0,0,1,.92.07,6.77,6.77,0,0,1,.89.21V23.94a3.87,3.87,0,0,0-.68-.12Z"/><path class="cls-1" d="M32.75,20.12H31v13h1.3a5.05,5.05,0,0,0,4.17-1.65,8,8,0,0,0,1.33-5.05,7.34,7.34,0,0,0-1.26-4.72A4.66,4.66,0,0,0,32.75,20.12Z"/><path class="cls-1" d="M51.89,0H1.5A1.5,1.5,0,0,0,0,1.5V51.77a1.51,1.51,0,0,0,1.51,1.51H51.88a1.52,1.52,0,0,0,1.51-1.51V1.5A1.5,1.5,0,0,0,51.89,0ZM15.36,38.2H9.15V27.55h6.21Zm7.81,0H17v-17h6.21Zm18-3.14q-3.18,3.13-9,3.14H24.82V15.07h7.87q5.56,0,8.6,2.85t3,8.23C44.32,30,43.26,33,41.13,35.06Z"/></g></g></svg>